Coordinates
version=1
nRows=9
nColumns=36
inDegrees=yes

Units are S.I. units (second, meters, Newtons, ...)
If the header above contains a line with 'inDegrees', this indicates whether rotational values are in degrees (yes) or radians (no).

endheader
time	pelvis_tilt	pelvis_list	pelvis_rotation	pelvis_tx	pelvis_ty	pelvis_tz	hip_flexion_r	hip_adduction_r	hip_rotation_r	knee_angle_r	knee_angle_r_beta	ankle_angle_r	subtalar_angle_r	mtp_angle_r	hip_flexion_l	hip_adduction_l	hip_rotation_l	knee_angle_l	knee_angle_l_beta	ankle_angle_l	subtalar_angle_l	mtp_angle_l	lumbar_extension	lumbar_bending	lumbar_rotation	arm_flex_r	arm_add_r	arm_rot_r	elbow_flex_r	pro_sup_r	arm_flex_l	arm_add_l	arm_rot_l	elbow_flex_l	pro_sup_l
      0.00000000	      5.86949087	     -4.57984821	      0.03767098	      0.24945139	      1.00262327	     -0.05009340	     -1.09343852	      4.56939533	     -3.08144417	      5.71781839	      0.09979476	      2.68033695	     -5.94428727	     -5.95335067	     -0.39476183	     -4.32489887	     -2.62963334	      8.92060073	      0.15569385	      8.84750362	     -5.04957300	     -5.95335067	    -10.00679929	      5.35569080	      1.17060586	     20.28406747	     -4.19356166	     13.30961502	     20.33413875	     85.18047417	      2.85357395	     -4.07587474	     13.65134572	     18.56523762	     68.71544774
      0.01666670	      2.64877878	     -3.58389013	     -0.39779494	      0.25380980	      0.99903292	     -0.05039414	      2.18136143	      3.44871591	     -3.45635542	      5.24116576	      0.09147560	      4.97707278	     -1.66682264	     -6.96875040	      2.77068930	     -3.28630355	     -4.67114296	      8.26155899	      0.14419141	      8.61751239	     -3.76851645	     -6.96875040	     -4.52996409	      4.40660121	      2.38698895	     18.37969746	     -3.77294269	      5.94516914	     20.79891787	     89.09233568	      2.54032000	     -3.48372135	     13.57401438	     17.21357386	     70.56075139
      0.03333330	      1.34160119	     -2.80823335	     -1.31150559	      0.25681670	      0.99694304	     -0.05026771	      3.03062412	      2.73320756	     -3.83815599	      4.20017820	      0.07330694	      5.52305762	     -0.63755676	     -7.01471726	      3.99535420	     -2.51260858	     -6.36335765	      7.82667492	      0.13660125	      7.87911067	     -2.62857264	     -7.01471726	     -2.29706759	      3.46285911	      3.34840955	     17.55777325	     -3.27163562	      4.71315444	     20.98481767	     87.17605979	      2.24731089	     -3.42622172	     12.71797560	     17.03590105	     69.40867965
      0.05000000	      1.22233382	     -2.44918032	     -1.52100521	      0.25764554	      0.99641958	     -0.04954406	      2.77359528	      2.42072054	     -3.94640476	      3.28189130	      0.05727981	      6.21630954	      0.70648883	     -7.13301806	      3.79594833	     -2.14234940	     -7.32367858	      7.19664102	      0.12560508	      7.89899186	     -1.21175232	     -7.13301806	     -1.92788737	      3.03568562	      4.04936981	     16.98943110	     -3.00802049	      2.01765737	     21.88111483	     83.57141972	      2.24245204	     -3.31354374	     11.18080854	     16.64511307	     67.71274034
      0.06666670	      0.93618475	     -2.25673140	     -1.80298008	      0.25731021	      0.99467598	     -0.04898143	      2.81631559	      2.32381666	     -3.78996248	      2.68841851	      0.04692175	      6.40290022	      1.15956797	     -7.24569553	      3.87452106	     -1.96456056	     -7.83805617	      6.91069930	      0.12061446	      7.94458300	     -0.20365782	     -7.24569553	     -1.43996235	      2.86213835	      5.09224094	     16.01807343	     -2.47134373	     -4.58354607	     23.67018785	     87.80970814	      2.52447509	     -3.04706562	      9.91030154	     15.97893276	     68.45409621
      0.08333330	      0.96296413	     -2.12853348	     -2.02132756	      0.25783171	      0.99533161	     -0.04892280	      2.54936896	      2.23850752	     -3.54603486	      2.37136762	      0.04138817	      6.51890227	      1.51803358	     -7.27382836	      3.68986738	     -1.80927935	     -7.90257140	      6.53845745	      0.11411761	      7.61250100	      0.03276466	     -7.27382836	     -1.41531910	      2.74418997	      5.47426339	     15.87315213	     -2.50434801	     -4.92761661	     24.29700886	     86.11906506	      2.50870870	     -3.10535850	      9.49375000	     16.34126941	     67.54669362
      0.10000000	      1.01799789	     -2.08780262	     -2.06678213	      0.25846345	      0.99501760	     -0.04951635	      2.35147010	      2.17835871	     -3.55392982	      2.21474147	      0.03865453	      6.62421349	      2.10920378	     -7.31888614	      3.57492935	     -1.76261591	     -7.95856298	      6.46319386	      0.11280401	      7.68955613	      0.57892708	     -7.31888614	     -1.40179403	      2.75360961	      5.44845332	     15.93131787	     -2.38813935	     -5.64095761	     24.63855467	     83.78996732	      2.51017258	     -2.97711963	      8.96768998	     16.22305242	     66.31343768
      0.11666670	      1.06655961	     -2.08009982	     -2.11937833	      0.25804309	      0.99524957	     -0.04866656	      2.21325458	      2.17208501	     -3.40604981	      2.12596166	      0.03710503	      6.41297792	      2.14563142	     -7.35371144	      3.45092025	     -1.76878613	     -8.02689749	      6.40212084	      0.11173809	      7.61566198	      1.04051311	     -7.35371144	     -1.38334603	      2.75713690	      5.55521690	     15.88695738	     -2.40381984	     -6.36489003	     25.11826314	     82.77004280	      2.70128943	     -2.87862425	      8.68599835	     15.88393057	     65.46321627
      0.13333330	      1.16705193	     -2.07618625	     -2.18077643	      0.25730702	      0.99255655	     -0.04768543	      2.11676845	      2.17885475	     -3.53767931	      2.08668358	      0.03641950	      6.49365667	      2.55063507	     -7.39694255	      3.29908634	     -1.78199516	     -7.88154572	      6.41518751	      0.11196614	      7.54630738	      1.09373910	     -7.39694255	     -1.50953329	      2.71346343	      5.63354424	     15.74099465	     -2.28169246	     -7.62493297	     26.05804572	     83.67688956	      2.69523691	     -2.90649229	      8.80980886	     16.20941963	     64.90818280
